<mxfile host="app.diagrams.net" agent="Mozilla/5.0 (Macintosh; Intel Mac OS X 10_15_7) AppleWebKit/537.36 (KHTML, like Gecko) Chrome/126.0.0.0 Safari/537.36" version="24.7.4">
  <diagram name="Page-1" id="46rlzbBvgw1xF2HafqeQ">
    <mxGraphModel dx="954" dy="606" grid="1" gridSize="10" guides="1" tooltips="1" connect="1" arrows="1" fold="1" page="1" pageScale="1" pageWidth="850" pageHeight="1100" math="0" shadow="0">
      <root>
        <mxCell id="0" />
        <mxCell id="1" parent="0" />
        <mxCell id="SIgDwWlduyBThtHjLVhD-1" value="" style="rounded=0;whiteSpace=wrap;html=1;strokeColor=default;" vertex="1" parent="1">
          <mxGeometry x="195" y="110" width="415" height="180" as="geometry" />
        </mxCell>
        <mxCell id="SIgDwWlduyBThtHjLVhD-9" style="rounded=0;orthogonalLoop=1;jettySize=auto;html=1;exitX=0.5;exitY=1;exitDx=0;exitDy=0;" edge="1" parent="1" source="SIgDwWlduyBThtHjLVhD-6" target="SIgDwWlduyBThtHjLVhD-7">
          <mxGeometry relative="1" as="geometry" />
        </mxCell>
        <mxCell id="SIgDwWlduyBThtHjLVhD-6" value="number = 1" style="text;html=1;align=center;verticalAlign=middle;whiteSpace=wrap;rounded=0;" vertex="1" parent="1">
          <mxGeometry x="240" y="60" width="100" height="30" as="geometry" />
        </mxCell>
        <mxCell id="SIgDwWlduyBThtHjLVhD-7" value="number &amp;lt;= 5" style="rounded=1;whiteSpace=wrap;html=1;strokeColor=#666666;fillColor=#999999;arcSize=50;" vertex="1" parent="1">
          <mxGeometry x="240" y="140" width="130" height="40" as="geometry" />
        </mxCell>
        <mxCell id="SIgDwWlduyBThtHjLVhD-8" value="Number++;&lt;div&gt;number =&lt;/div&gt;" style="text;html=1;align=center;verticalAlign=middle;whiteSpace=wrap;rounded=0;" vertex="1" parent="1">
          <mxGeometry x="347.5" y="210" width="110" height="45" as="geometry" />
        </mxCell>
      </root>
    </mxGraphModel>
  </diagram>
</mxfile>
